# xmcd CD database file
#
# Track frame offsets:
#	150
#	45569
#	68976
#	102344
#	126934
#	138609
#
# Disc length: 2454 seconds
#
# Revision: 0
# Processed by: cddbd v1.4PL0 Copyright (c) Steve Scherf et al.
# Submitted via: CDex 1.51
#
DISCID=57099406
DTITLE=Tony O Connor - Zodiac Collection Scorpio
DYEAR=1999
DGENRE=New Age
TTITLE0=Scorpio 1
TTITLE1=Scorpio 2
TTITLE2=Scorpio 3
TTITLE3=Scorpio 4
TTITLE4=Scorpio 5
TTITLE5=Scorpio 6
EXTD=YEAR: 1999
EXTT0=
EXTT1=
EXTT2=
EXTT3=
EXTT4=
EXTT5=
PLAYORDER=
